PathFileType	4	(X/Y/Z)	/Users/visionmauri/1_9_1_f_Sports2D/1_9_1_f_Sports2D_m_person00.trc
DataRate	CameraRate	NumFrames	NumMarkers	Units	OrigDataRate	OrigDataStartFrame	OrigNumFrames
30.0	30.0	10	22	m	30.0	218	349
Frame#	Time	Hip			RHip			RKnee			RAnkle			RBigToe			RSmallToe			RHeel			LHip			LKnee			LAnkle			LBigToe			LSmallToe			LHeel			Neck			Head			Nose			RShoulder			RElbow			RWrist			LShoulder			LElbow			LWrist			
		X1	Y1	Z1	X2	Y2	Z2	X3	Y3	Z3	X4	Y4	Z4	X5	Y5	Z5	X6	Y6	Z6	X7	Y7	Z7	X8	Y8	Z8	X9	Y9	Z9	X10	Y10	Z10	X11	Y11	Z11	X12	Y12	Z12	X13	Y13	Z13	X14	Y14	Z14	X15	Y15	Z15	X16	Y16	Z16	X17	Y17	Z17	X18	Y18	Z18	X19	Y19	Z19	X20	Y20	Z20	X21	Y21	Z21	X22	Y22	Z22
218	7.287547892720307	0.6800795188525072	0.6173997707911556	0.0301	0.622872281092659	0.5582514573266024	0.0301	0.8427657634286673	0.30416723571572674	0.129	1.0811217297049647	0.12675901865574263	0.023	1.0892120541508938	0.00879637971046852	0.2179	1.0769311576400835	0.01999667392802527	0.1804	1.1309077236563534	0.10464746491156651	-0.0119	0.7374850994577721	0.6781347977406275	0.0301	0.9284185040497323	0.47508097712429914	0.129	1.1899676287303387	0.20442772926170477	0.023	1.2633444399199836	0.11551873652023946	0.2179	1.297702288199272	0.15285409808673173	0.1804	1.2174568243307349	0.1596123021716498	-0.0119	0.39205262306988387	0.9501840851211564	0.0008	0.25792722991453776	1.1065219945491032	0.0655	0.36928506595935406	0.993161278527227	0.1076	0.30328955981072986	0.8152503937076232	-0.01275	0.4053752684310376	0.6300885456841951	0.0702	0.5017021768284174	0.4879975166838057	0.1076	0.5401748152750128	1.021322149700912	-0.01275	0.7176160013129128	0.9057387148314835	0.0702	0.7724895527208572	0.8569495037672177	0.1076
219	7.320977011494253	0.6839069966744975	0.6209671260148862	0.0301	0.6273187188535272	0.5613327715124914	0.0301	0.8445422102848293	0.29964031287419973	0.129	1.0814344322130747	0.12692004567158635	0.023	1.0811867178653536	0.003010872524916089	0.2179	1.068780392762215	0.015810882562032114	0.1804	1.132306796329362	0.10517111665017977	-0.0119	0.7419532416090291	0.679282126184536	0.0301	0.9350037465667046	0.47676407849324065	0.129	1.1915391260817099	0.20407165386561082	0.023	1.2634941280778031	0.11573660562661314	0.2179	1.2987243279087501	0.15305587120999664	0.1804	1.2182328572025627	0.16044589840368778	-0.0119	0.39662878486623515	0.9543922171782895	0.0008	0.26626189648368426	1.1148755114825797	0.0655	0.3769816228256846	0.9962914161017568	0.1076	0.3090848892276242	0.8207382740057005	-0.01275	0.4057836261840535	0.6363971819944869	0.0702	0.5022738462975295	0.4897481203741229	0.1076	0.5442072439044113	1.0245302140516244	-0.01275	0.7220388670859157	0.9110734472699277	0.0702	0.7469720372969422	0.8980358102794149	0.1076
220	7.354406130268199	0.6878086907911812	0.624743828263506	0.0301	0.6311971434961852	0.56345626141069	0.0301	0.8458738185700584	0.294526246114765	0.129	1.080732687711087	0.12729529041400287	0.023	1.076693962040633	-0.001411335078162312	0.2179	1.0647588227210565	0.012233252664332265	0.1804	1.1335244229560852	0.10603300134131827	-0.0119	0.7468118839841119	0.6830387912160769	0.0301	0.9416273780715754	0.4778917628956488	0.129	1.19373219462702	0.20188187881393213	0.023	1.2638828156967932	0.11734794090293776	0.2179	1.2994993549916873	0.15411073497208636	0.1804	1.2200887118964685	0.15945164493748637	-0.0119	0.4033234949244147	0.9579697738183336	0.0008	0.27310067850970887	1.121815680269444	0.0655	0.38182484281023044	0.9972927079683834	0.1076	0.3143961149636525	0.8264036052515273	-0.01275	0.40605334631778056	0.642185414893501	0.0702	0.5027719476011009	0.4917459183728004	0.1076	0.5493329117268055	1.0301436616439965	-0.01275	0.7287809546278655	0.914796667788001	0.0702	0.7399206440722637	0.9146308229752763	0.1076
221	7.387835249042145	0.6917652811980071	0.6284166485192128	0.0301	0.634793366161878	0.5651248682327108	0.0301	0.846745812069583	0.28868955290164644	0.129	1.0788139601424578	0.12901535998201566	0.023	1.07505843270359	-0.002446593420426644	0.2179	1.0648213114358789	0.012359729804795766	0.1804	1.1323038456363343	0.10822241426566072	-0.0119	0.7525631841286187	0.6878438620418174	0.0301	0.9486479080090737	0.47654271293280415	0.129	1.1966140454637846	0.1992180516317427	0.023	1.2664288712281146	0.11951957787732251	0.2179	1.3011570894234794	0.15501218338173894	0.1804	1.222729195594805	0.15719135720640626	-0.0119	0.4101793147655195	0.9621447023558548	0.0008	0.2777768894642349	1.1268104125097436	0.0655	0.38353995561207893	0.997183696655772	0.1076	0.3174966057787423	0.8318669913130246	-0.01275	0.4080830264280421	0.6452461383828352	0.0702	0.5040184680412155	0.49230149895948744	0.1076	0.5547941987587638	1.0376720746962924	-0.01275	0.7373899288399962	0.9154600124569856	0.0702	0.7438905187420353	0.9155866913979164	0.1076
222	7.421264367816092	0.6956754583858972	0.6314274722282531	0.0301	0.6387812570356105	0.5673044564023623	0.0301	0.8453098938373549	0.28388366994295344	0.129	1.0749085255267907	0.1319482186838312	0.023	1.0748065452413322	-9.644998046879919e-05	0.2179	1.0650129322128055	0.014827844852725537	0.1804	1.1267886895579737	0.11182288308900581	-0.0119	0.7577508071535279	0.6917459537300022	0.0301	0.9555095618083473	0.47441405419747057	0.129	1.1994539609111172	0.19742987823673322	0.023	1.2699430041981608	0.1201638042070208	0.2179	1.3026371117317632	0.15519773074707033	0.1804	1.223812286864679	0.15476512650648228	-0.0119	0.41719793476128647	0.9663525490380616	0.0008	0.2810326690572868	1.1306243387135644	0.0655	0.3867840344106433	0.9977058364659029	0.1076	0.31954918310493385	0.8387275358950314	-0.01275	0.40968604944857967	0.6481177847350075	0.0702	0.5052457973840073	0.4919109498979495	0.1076	0.5593929730425272	1.04529979456235	-0.01275	0.7450138216552897	0.9163243176152737	0.0702	0.7512854860572399	0.9154906639784653	0.1076
223	7.454693486590038	0.6990458146224313	0.6334440480110595	0.0301	0.6423802457745071	0.5697020382442969	0.0301	0.8413051525754299	0.28161367935766785	0.129	1.0684712993172794	0.135005670149026	0.023	1.077235101533304	0.0037991981006722723	0.2179	1.0638539021270583	0.015836195509945025	0.1804	1.1180570245568522	0.11655601941329942	-0.0119	0.7610345183251583	0.6940223279612201	0.0301	0.9607632330649998	0.4731690803361749	0.129	1.2009415102787533	0.19646466380958075	0.023	1.2726420324325511	0.11852021557054822	0.2179	1.3035879031674067	0.15447810242693727	0.1804	1.2220046660059358	0.152496767065739	-0.0119	0.42395617285472653	0.9696830148319124	0.0008	0.28408281865751883	1.1344289343602327	0.0655	0.3941393081193165	1.0004433986951495	0.1076	0.32188474735163547	0.8464098514594998	-0.01275	0.40878522848155463	0.6528199775275695	0.0702	0.5056527680434235	0.49271986901586196	0.1076	0.5623817735070997	1.0514229643750344	-0.01275	0.7481685406586557	0.9231598226735641	0.0702	0.759803449030748	0.921121546960675	0.1076
224	7.488122605363984	0.7012968299096835	0.6346640252486047	0.0301	0.6439162092139609	0.571143213189351	0.0301	0.8378294410678011	0.2820148146849324	0.129	1.0608626125492384	0.13604711841105396	0.023	1.0849383721273487	0.006595477455516077	0.2179	1.0639255425525138	0.012672429094042321	0.1804	1.1098193321778351	0.12037620883327768	-0.0119	0.7639001075208757	0.6941462377206211	0.0301	0.965355750587163	0.4699735253295003	0.129	1.2008980678590848	0.1960163399877931	0.023	1.2749281393541032	0.11553226853911577	0.2179	1.3052358658814354	0.15264501700667837	0.1804	1.2185354552199184	0.1503535618303444	-0.0119	0.4274551175888816	0.9734925961465845	0.0008	0.2868799793923164	1.1385628060167805	0.0655	0.4000812692914208	1.0058254647280684	0.1076	0.32412106508726035	0.8515024887426137	-0.01275	0.40741009570582565	0.6573561757697002	0.0702	0.5052465087701279	0.4949645383520127	0.1076	0.5634158242188141	1.0557654171730375	-0.01275	0.7473394060894726	0.9357493358754944	0.0702	0.7680601541518527	0.9297326742208663	0.1076
225	7.521551724137931	0.7021179742649659	0.6353667080119737	0.0301	0.6430217708277157	0.5716325150325643	0.0301	0.837650344246617	0.2847468791152363	0.129	1.055960542255395	0.13310725320033645	0.023	1.0980039489820492	0.006844442835970852	0.2179	1.0683967689313385	0.005818108391914251	0.1804	1.1050474439034088	0.11982596243651812	-0.0119	0.7676606475669173	0.6923167919283296	0.0301	0.9702775471150519	0.4639454580502631	0.129	1.2008105922988226	0.19624265504668625	0.023	1.2769750354673002	0.1124573055800484	0.2179	1.3072031008677059	0.15031872682292743	0.1804	1.216057585273411	0.14892266179820896	-0.0119	0.4261294379142889	0.9793907317729873	0.0008	0.28879396409483626	1.143116709359029	0.0655	0.3992643678943423	1.0125999000016335	0.1076	0.325788820245346	0.8530958901918825	-0.01275	0.40813199315145304	0.6594980449856521	0.0702	0.504300382106478	0.4968960881367989	0.1076	0.563410632382145	1.059183180619263	-0.01275	0.7458071592122828	0.9478859236351588	0.0702	0.7754552181180221	0.934696453128377	0.1076
226	7.554980842911877	0.7015057893516735	0.6359120919030044	0.0301	0.6410642056865395	0.5720687950020239	0.0301	0.84073049908957	0.2891351887615711	0.129	1.0573778032793006	0.12623024215855957	0.023	1.1146577600327	0.005253399203213458	0.2179	1.078845354981169	-0.0025734067527307144	0.1804	1.1044774508984276	0.11311228355754004	-0.0119	0.7708972768881083	0.6904192915529211	0.0301	0.9732422447786923	0.4597405797233673	0.129	1.201293476898186	0.1968611852925386	0.023	1.277789801891076	0.10984427752013412	0.2179	1.307293554246326	0.14825622413774975	0.1804	1.2154595408318443	0.14799704247545675	-0.0119	0.4234724446789823	0.9860318034676827	0.0008	0.29007886766343854	1.1484914327794313	0.0655	0.3957642648072625	1.0186243414923204	0.1076	0.32714371190295666	0.8541898357138465	-0.01275	0.4100914736846502	0.659711929088083	0.0702	0.5033571865168747	0.4975031027033085	0.1076	0.5644058053210724	1.0626753735211392	-0.01275	0.745620596219158	0.9553696269688192	0.0702	0.7831104394202073	0.934596399098641	0.1076
227	7.588409961685824	0.7001754815878409	0.6366840522140174	0.0301	0.6397804260226204	0.5726089671109857	0.0301	0.8454512430591271	0.29489778485340623	0.129	1.0652751948696482	0.11635075381905785	0.023	1.1325807817098918	0.0034135387983514555	0.2179	1.0936923489015924	-0.010686557494214202	0.1804	1.108591036744734	0.10085478092419449	-0.0119	0.7723419760519189	0.6900145469549053	0.0301	0.9725482146885178	0.46023681268505645	0.129	1.2017644271221146	0.1967575067673085	0.023	1.2774397901245444	0.10791870215167622	0.2179	1.3054015682803264	0.14633655229501016	0.1804	1.2160647861068243	0.14626823903623956	-0.0119	0.4236902724956925	0.9910176585443359	0.0008	0.29119181164788005	1.1540626167193604	0.0655	0.3958634453188204	1.0233565988697633	0.1076	0.3285589178706343	0.8567544100970615	-0.01275	0.4112451357100513	0.6594590312101156	0.0702	0.5031085983343871	0.497047267499464	0.1076	0.5670207247128293	1.0661864934812	-0.01275	0.747636958124076	0.9583922010217272	0.0702	0.7890030296377987	0.9351683676959953	0.1076
